<?xml version="1.0" encoding="utf-8"?>
<!-- Generator: Adobe Illustrator 27.9.0, SVG Export Plug-In . SVG Version: 6.00 Build 0)  -->
<svg version="1.1" xmlns="http://www.w3.org/2000/svg" xmlns:xlink="http://www.w3.org/1999/xlink" x="0px" y="0px"
	 viewBox="0 0 1208.39 814.82" style="enable-background:new 0 0 1208.39 814.82;" xml:space="preserve">
<style type="text/css">
	.st0{fill:#D9D9D9;}
	.st1{fill:#1E1E1E;}
	.st2{display:none;fill:#1E1E1E;}
</style>
<g id="Guides">
</g>
<g id="Dieline">
</g>
<g id="Artwork">
</g>
<g id="Text">
</g>
<g id="Printer_Marks">
	<circle class="st0" cx="604.2" cy="386.9" r="354.33"/>
	<path class="st1" d="M672.95,437.35c20.07,0.57,42.3,19.58,46.9,44.04c5.9,31.34-20.59,53.36-23.61,55.79
		c-26.49,21.29-69.62,19.87-82.79,1.32C594.06,511.19,632.11,436.19,672.95,437.35z"/>
	<path class="st2" d="M657.59,407.41c0,0-30.71,51.45,0,82.17S721,515.34,721,515.34s34.68-6.94,43.59-30.71"/>
	<path class="st1" d="M645.81,588.26c-4.29,0.64-36.12,4.9-57.69-14.53c-22.08-19.89-18.36-51.04-14.09-159.15
		c1.42-36.06,2.29-65.04,2.76-82.1c-27.83-3.73-41.2,2.61-48.22,9.89c-12.71,13.18-9.89,34.92-26.06,41.83
		c-2.01,0.86-8.35,3.57-12.59,1.21c-22.95-12.77,28.62-166.57,54.17-163.32c8.45,1.07,17.61,19.8,21.58,27.82
		c6.37,12.86,7.23,21.67,9.25,21.54c5.84-0.39-2.78-74.09,16.86-80.9c7.56-2.62,17.4,5.32,25.42,13.71
		c0.85,23.99,1.66,61.14,0.44,106.57c-1.84,68.65-24.43,193.9,0.85,225.07c3.94,4.86,8.84,7.89,8.84,7.89
		c18.9,11.69,44.48,0.77,55.49-3.08c23.45-8.2,37.78-23.03,44.04-30.39c11.93-13.64,14.96-16.21,15.41-15.85
		C743.9,495.75,706.2,579.3,645.81,588.26z"/>
	<path class="st1" d="M664.47,557.49"/>
	<path class="st1" d="M625.33,782.24"/>
</g>
</svg>
